<mxfile host="app.diagrams.net" modified="2021-09-29T07:24:16.391Z" agent="5.0 (Macintosh; Intel Mac OS X 10_15_7) AppleWebKit/537.36 (KHTML, like Gecko) Chrome/93.0.4577.63 Safari/537.36" etag="SzgskiEj2TFfPLF201uT" version="14.8.0" type="github">
  <diagram id="VlzLkZBXH2vV1fXIKz9U" name="第 1 页">
    <mxGraphModel dx="728" dy="1470" grid="1" gridSize="10" guides="1" tooltips="1" connect="1" arrows="1" fold="1" page="1" pageScale="1" pageWidth="827" pageHeight="1169" math="0" shadow="0">
      <root>
        <mxCell id="0" />
        <mxCell id="1" parent="0" />
        <mxCell id="yxpQOGYtJp1VoAAh2udO-11" style="edgeStyle=orthogonalEdgeStyle;curved=1;rounded=0;orthogonalLoop=1;jettySize=auto;html=1;exitX=0.5;exitY=1;exitDx=0;exitDy=0;" edge="1" parent="1" source="yxpQOGYtJp1VoAAh2udO-1" target="yxpQOGYtJp1VoAAh2udO-2">
          <mxGeometry relative="1" as="geometry" />
        </mxCell>
        <mxCell id="yxpQOGYtJp1VoAAh2udO-1" value="&lt;pre style=&quot;background-color: #2b2b2b ; color: #a9b7c6 ; font-family: &amp;#34;menlo-regular&amp;#34; , monospace ; font-size: 12.0pt&quot;&gt;&lt;span style=&quot;color: #afbf7e&quot;&gt;servicegateway&lt;/span&gt;&lt;/pre&gt;" style="rounded=0;whiteSpace=wrap;html=1;" vertex="1" parent="1">
          <mxGeometry x="190" y="170" width="150" height="70" as="geometry" />
        </mxCell>
        <mxCell id="yxpQOGYtJp1VoAAh2udO-8" style="edgeStyle=orthogonalEdgeStyle;curved=1;rounded=0;orthogonalLoop=1;jettySize=auto;html=1;exitX=0.5;exitY=1;exitDx=0;exitDy=0;entryX=0.5;entryY=0;entryDx=0;entryDy=0;" edge="1" parent="1" source="yxpQOGYtJp1VoAAh2udO-2" target="yxpQOGYtJp1VoAAh2udO-3">
          <mxGeometry relative="1" as="geometry" />
        </mxCell>
        <mxCell id="yxpQOGYtJp1VoAAh2udO-2" value="&lt;pre style=&quot;background-color: #2b2b2b ; color: #a9b7c6 ; font-family: &amp;#34;menlo-regular&amp;#34; , monospace ; font-size: 12.0pt&quot;&gt;&lt;span style=&quot;color: #9876aa ; font-style: italic&quot;&gt;ServiceEntry&lt;/span&gt;&lt;/pre&gt;" style="rounded=0;whiteSpace=wrap;html=1;" vertex="1" parent="1">
          <mxGeometry x="202.5" y="280" width="125" height="60" as="geometry" />
        </mxCell>
        <mxCell id="yxpQOGYtJp1VoAAh2udO-5" style="edgeStyle=orthogonalEdgeStyle;rounded=0;orthogonalLoop=1;jettySize=auto;html=1;exitX=0.5;exitY=1;exitDx=0;exitDy=0;entryX=0.5;entryY=0;entryDx=0;entryDy=0;" edge="1" parent="1" source="yxpQOGYtJp1VoAAh2udO-3" target="yxpQOGYtJp1VoAAh2udO-4">
          <mxGeometry relative="1" as="geometry" />
        </mxCell>
        <mxCell id="yxpQOGYtJp1VoAAh2udO-19" style="edgeStyle=orthogonalEdgeStyle;curved=1;rounded=0;orthogonalLoop=1;jettySize=auto;html=1;exitX=1;exitY=0.5;exitDx=0;exitDy=0;entryX=1;entryY=0.25;entryDx=0;entryDy=0;" edge="1" parent="1" source="yxpQOGYtJp1VoAAh2udO-3" target="yxpQOGYtJp1VoAAh2udO-4">
          <mxGeometry relative="1" as="geometry" />
        </mxCell>
        <mxCell id="yxpQOGYtJp1VoAAh2udO-3" value="&lt;pre style=&quot;background-color: #2b2b2b ; color: #a9b7c6 ; font-family: &amp;#34;menlo-regular&amp;#34; , monospace ; font-size: 12.0pt&quot;&gt;needSync&lt;/pre&gt;" style="rhombus;whiteSpace=wrap;html=1;" vertex="1" parent="1">
          <mxGeometry x="195" y="370" width="140" height="100" as="geometry" />
        </mxCell>
        <mxCell id="yxpQOGYtJp1VoAAh2udO-9" style="edgeStyle=orthogonalEdgeStyle;curved=1;rounded=0;orthogonalLoop=1;jettySize=auto;html=1;exitX=0.5;exitY=1;exitDx=0;exitDy=0;entryX=0.5;entryY=0;entryDx=0;entryDy=0;" edge="1" parent="1" source="yxpQOGYtJp1VoAAh2udO-4" target="yxpQOGYtJp1VoAAh2udO-6">
          <mxGeometry relative="1" as="geometry" />
        </mxCell>
        <mxCell id="yxpQOGYtJp1VoAAh2udO-20" style="edgeStyle=orthogonalEdgeStyle;curved=1;rounded=0;orthogonalLoop=1;jettySize=auto;html=1;exitX=1;exitY=0.5;exitDx=0;exitDy=0;entryX=1;entryY=0.25;entryDx=0;entryDy=0;" edge="1" parent="1" source="yxpQOGYtJp1VoAAh2udO-4" target="yxpQOGYtJp1VoAAh2udO-6">
          <mxGeometry relative="1" as="geometry" />
        </mxCell>
        <mxCell id="yxpQOGYtJp1VoAAh2udO-4" value="&lt;pre style=&quot;background-color: #2b2b2b ; color: #a9b7c6 ; font-family: &amp;#34;menlo-regular&amp;#34; , monospace ; font-size: 12.0pt&quot;&gt;&lt;span style=&quot;color: #b09d79&quot;&gt;Gateway&lt;/span&gt;&lt;/pre&gt;" style="rounded=0;whiteSpace=wrap;html=1;" vertex="1" parent="1">
          <mxGeometry x="205" y="510" width="120" height="60" as="geometry" />
        </mxCell>
        <mxCell id="yxpQOGYtJp1VoAAh2udO-10" style="edgeStyle=orthogonalEdgeStyle;curved=1;rounded=0;orthogonalLoop=1;jettySize=auto;html=1;exitX=0.5;exitY=1;exitDx=0;exitDy=0;entryX=0.414;entryY=-0.052;entryDx=0;entryDy=0;entryPerimeter=0;" edge="1" parent="1" source="yxpQOGYtJp1VoAAh2udO-6" target="yxpQOGYtJp1VoAAh2udO-7">
          <mxGeometry relative="1" as="geometry" />
        </mxCell>
        <mxCell id="yxpQOGYtJp1VoAAh2udO-21" style="edgeStyle=orthogonalEdgeStyle;curved=1;rounded=0;orthogonalLoop=1;jettySize=auto;html=1;exitX=1;exitY=0.75;exitDx=0;exitDy=0;entryX=1;entryY=0.25;entryDx=0;entryDy=0;" edge="1" parent="1" source="yxpQOGYtJp1VoAAh2udO-6" target="yxpQOGYtJp1VoAAh2udO-7">
          <mxGeometry relative="1" as="geometry" />
        </mxCell>
        <mxCell id="yxpQOGYtJp1VoAAh2udO-6" value="&lt;pre style=&quot;background-color: #2b2b2b ; color: #a9b7c6 ; font-family: &amp;#34;menlo-regular&amp;#34; , monospace ; font-size: 12.0pt&quot;&gt;&lt;span style=&quot;color: #b09d79&quot;&gt;DestinationRule&lt;/span&gt;&lt;/pre&gt;" style="rounded=0;whiteSpace=wrap;html=1;" vertex="1" parent="1">
          <mxGeometry x="187.5" y="600" width="155" height="80" as="geometry" />
        </mxCell>
        <mxCell id="yxpQOGYtJp1VoAAh2udO-7" value="&lt;pre style=&quot;background-color: #2b2b2b ; color: #a9b7c6 ; font-family: &amp;#34;menlo-regular&amp;#34; , monospace ; font-size: 12.0pt&quot;&gt;&lt;span style=&quot;color: #b09d79&quot;&gt;VirtualService&lt;/span&gt;&lt;/pre&gt;" style="rounded=0;whiteSpace=wrap;html=1;" vertex="1" parent="1">
          <mxGeometry x="202.5" y="720" width="152" height="70" as="geometry" />
        </mxCell>
        <mxCell id="yxpQOGYtJp1VoAAh2udO-12" value="yes" style="text;html=1;strokeColor=none;fillColor=none;align=center;verticalAlign=middle;whiteSpace=wrap;rounded=0;" vertex="1" parent="1">
          <mxGeometry x="245" y="440" width="40" height="20" as="geometry" />
        </mxCell>
        <mxCell id="yxpQOGYtJp1VoAAh2udO-14" value="sync" style="text;html=1;strokeColor=none;fillColor=none;align=center;verticalAlign=middle;whiteSpace=wrap;rounded=0;" vertex="1" parent="1">
          <mxGeometry x="270" y="470" width="40" height="20" as="geometry" />
        </mxCell>
        <mxCell id="yxpQOGYtJp1VoAAh2udO-17" value="sync" style="text;html=1;strokeColor=none;fillColor=none;align=center;verticalAlign=middle;whiteSpace=wrap;rounded=0;" vertex="1" parent="1">
          <mxGeometry x="260" y="565" width="40" height="20" as="geometry" />
        </mxCell>
        <mxCell id="yxpQOGYtJp1VoAAh2udO-18" value="sync" style="text;html=1;strokeColor=none;fillColor=none;align=center;verticalAlign=middle;whiteSpace=wrap;rounded=0;" vertex="1" parent="1">
          <mxGeometry x="260" y="680" width="40" height="20" as="geometry" />
        </mxCell>
        <mxCell id="yxpQOGYtJp1VoAAh2udO-22" value="no" style="text;html=1;strokeColor=none;fillColor=none;align=center;verticalAlign=middle;whiteSpace=wrap;rounded=0;" vertex="1" parent="1">
          <mxGeometry x="295" y="410" width="40" height="20" as="geometry" />
        </mxCell>
        <mxCell id="yxpQOGYtJp1VoAAh2udO-24" value="remove" style="text;html=1;strokeColor=none;fillColor=none;align=center;verticalAlign=middle;whiteSpace=wrap;rounded=0;" vertex="1" parent="1">
          <mxGeometry x="370" y="450" width="40" height="20" as="geometry" />
        </mxCell>
        <mxCell id="yxpQOGYtJp1VoAAh2udO-25" value="remove" style="text;html=1;strokeColor=none;fillColor=none;align=center;verticalAlign=middle;whiteSpace=wrap;rounded=0;" vertex="1" parent="1">
          <mxGeometry x="354.5" y="550" width="40" height="20" as="geometry" />
        </mxCell>
        <mxCell id="yxpQOGYtJp1VoAAh2udO-26" value="remove" style="text;html=1;strokeColor=none;fillColor=none;align=center;verticalAlign=middle;whiteSpace=wrap;rounded=0;" vertex="1" parent="1">
          <mxGeometry x="370" y="670" width="40" height="20" as="geometry" />
        </mxCell>
        <mxCell id="yxpQOGYtJp1VoAAh2udO-30" style="edgeStyle=orthogonalEdgeStyle;curved=1;rounded=0;orthogonalLoop=1;jettySize=auto;html=1;exitX=0.5;exitY=1;exitDx=0;exitDy=0;entryX=0.5;entryY=0;entryDx=0;entryDy=0;" edge="1" parent="1" source="yxpQOGYtJp1VoAAh2udO-28" target="yxpQOGYtJp1VoAAh2udO-29">
          <mxGeometry relative="1" as="geometry" />
        </mxCell>
        <mxCell id="yxpQOGYtJp1VoAAh2udO-28" value="&lt;pre style=&quot;background-color: #2b2b2b ; color: #a9b7c6 ; font-family: &amp;#34;menlo-regular&amp;#34; , monospace ; font-size: 12.0pt&quot;&gt;&lt;span style=&quot;color: #afbf7e&quot;&gt;virtualservice&lt;/span&gt;&lt;/pre&gt;" style="rounded=0;whiteSpace=wrap;html=1;" vertex="1" parent="1">
          <mxGeometry x="540" y="240" width="160" height="60" as="geometry" />
        </mxCell>
        <mxCell id="yxpQOGYtJp1VoAAh2udO-33" style="edgeStyle=orthogonalEdgeStyle;curved=1;rounded=0;orthogonalLoop=1;jettySize=auto;html=1;exitX=0.25;exitY=1;exitDx=0;exitDy=0;" edge="1" parent="1" source="yxpQOGYtJp1VoAAh2udO-29" target="yxpQOGYtJp1VoAAh2udO-31">
          <mxGeometry relative="1" as="geometry" />
        </mxCell>
        <mxCell id="yxpQOGYtJp1VoAAh2udO-34" style="edgeStyle=orthogonalEdgeStyle;curved=1;rounded=0;orthogonalLoop=1;jettySize=auto;html=1;exitX=0.75;exitY=1;exitDx=0;exitDy=0;" edge="1" parent="1" source="yxpQOGYtJp1VoAAh2udO-29" target="yxpQOGYtJp1VoAAh2udO-32">
          <mxGeometry relative="1" as="geometry" />
        </mxCell>
        <mxCell id="yxpQOGYtJp1VoAAh2udO-29" value="&lt;pre style=&quot;background-color: #2b2b2b ; color: #a9b7c6 ; font-family: &amp;#34;menlo-regular&amp;#34; , monospace ; font-size: 12.0pt&quot;&gt;&lt;span style=&quot;color: #9876aa ; font-style: italic&quot;&gt;VirtualService&lt;/span&gt;&lt;/pre&gt;" style="rounded=0;whiteSpace=wrap;html=1;" vertex="1" parent="1">
          <mxGeometry x="550" y="350" width="140" height="60" as="geometry" />
        </mxCell>
        <mxCell id="yxpQOGYtJp1VoAAh2udO-38" style="edgeStyle=orthogonalEdgeStyle;curved=1;rounded=0;orthogonalLoop=1;jettySize=auto;html=1;exitX=0.5;exitY=1;exitDx=0;exitDy=0;entryX=0.5;entryY=0;entryDx=0;entryDy=0;" edge="1" parent="1" source="yxpQOGYtJp1VoAAh2udO-31" target="yxpQOGYtJp1VoAAh2udO-37">
          <mxGeometry relative="1" as="geometry" />
        </mxCell>
        <mxCell id="yxpQOGYtJp1VoAAh2udO-39" style="edgeStyle=orthogonalEdgeStyle;curved=1;rounded=0;orthogonalLoop=1;jettySize=auto;html=1;exitX=1;exitY=0.5;exitDx=0;exitDy=0;entryX=0;entryY=0.25;entryDx=0;entryDy=0;" edge="1" parent="1" source="yxpQOGYtJp1VoAAh2udO-31" target="yxpQOGYtJp1VoAAh2udO-32">
          <mxGeometry relative="1" as="geometry" />
        </mxCell>
        <mxCell id="yxpQOGYtJp1VoAAh2udO-31" value="rootVs" style="rounded=0;whiteSpace=wrap;html=1;" vertex="1" parent="1">
          <mxGeometry x="490" y="510" width="120" height="60" as="geometry" />
        </mxCell>
        <mxCell id="yxpQOGYtJp1VoAAh2udO-42" style="edgeStyle=orthogonalEdgeStyle;curved=1;rounded=0;orthogonalLoop=1;jettySize=auto;html=1;exitX=0.5;exitY=1;exitDx=0;exitDy=0;entryX=1;entryY=0.5;entryDx=0;entryDy=0;" edge="1" parent="1" source="yxpQOGYtJp1VoAAh2udO-32" target="yxpQOGYtJp1VoAAh2udO-37">
          <mxGeometry relative="1" as="geometry" />
        </mxCell>
        <mxCell id="yxpQOGYtJp1VoAAh2udO-43" style="edgeStyle=orthogonalEdgeStyle;curved=1;rounded=0;orthogonalLoop=1;jettySize=auto;html=1;exitX=0;exitY=0.5;exitDx=0;exitDy=0;" edge="1" parent="1" source="yxpQOGYtJp1VoAAh2udO-32">
          <mxGeometry relative="1" as="geometry">
            <mxPoint x="550" y="610" as="targetPoint" />
          </mxGeometry>
        </mxCell>
        <mxCell id="yxpQOGYtJp1VoAAh2udO-32" value="meshVs" style="rounded=0;whiteSpace=wrap;html=1;" vertex="1" parent="1">
          <mxGeometry x="660" y="510" width="120" height="60" as="geometry" />
        </mxCell>
        <mxCell id="yxpQOGYtJp1VoAAh2udO-35" value="root" style="text;html=1;strokeColor=none;fillColor=none;align=center;verticalAlign=middle;whiteSpace=wrap;rounded=0;" vertex="1" parent="1">
          <mxGeometry x="520" y="440" width="40" height="20" as="geometry" />
        </mxCell>
        <mxCell id="yxpQOGYtJp1VoAAh2udO-36" value="mesh" style="text;html=1;strokeColor=none;fillColor=none;align=center;verticalAlign=middle;whiteSpace=wrap;rounded=0;" vertex="1" parent="1">
          <mxGeometry x="640" y="460" width="40" height="20" as="geometry" />
        </mxCell>
        <mxCell id="yxpQOGYtJp1VoAAh2udO-37" value="subVs" style="rounded=0;whiteSpace=wrap;html=1;" vertex="1" parent="1">
          <mxGeometry x="490" y="660" width="120" height="60" as="geometry" />
        </mxCell>
        <mxCell id="yxpQOGYtJp1VoAAh2udO-41" value="merge" style="text;html=1;strokeColor=none;fillColor=none;align=center;verticalAlign=middle;whiteSpace=wrap;rounded=0;" vertex="1" parent="1">
          <mxGeometry x="670" y="620" width="40" height="20" as="geometry" />
        </mxCell>
        <mxCell id="yxpQOGYtJp1VoAAh2udO-44" value="create" style="text;html=1;strokeColor=none;fillColor=none;align=center;verticalAlign=middle;whiteSpace=wrap;rounded=0;" vertex="1" parent="1">
          <mxGeometry x="510" y="620" width="40" height="20" as="geometry" />
        </mxCell>
        <mxCell id="yxpQOGYtJp1VoAAh2udO-45" value="get" style="text;html=1;strokeColor=none;fillColor=none;align=center;verticalAlign=middle;whiteSpace=wrap;rounded=0;" vertex="1" parent="1">
          <mxGeometry x="610" y="510" width="40" height="20" as="geometry" />
        </mxCell>
        <mxCell id="yxpQOGYtJp1VoAAh2udO-46" value="merge" style="text;html=1;strokeColor=none;fillColor=none;align=center;verticalAlign=middle;whiteSpace=wrap;rounded=0;" vertex="1" parent="1">
          <mxGeometry x="610" y="540" width="40" height="20" as="geometry" />
        </mxCell>
        <mxCell id="yxpQOGYtJp1VoAAh2udO-47" value="operator" style="text;html=1;strokeColor=none;fillColor=none;align=center;verticalAlign=middle;whiteSpace=wrap;rounded=0;" vertex="1" parent="1">
          <mxGeometry x="550" y="240" width="40" height="20" as="geometry" />
        </mxCell>
        <mxCell id="yxpQOGYtJp1VoAAh2udO-49" value="kind" style="text;html=1;strokeColor=none;fillColor=none;align=center;verticalAlign=middle;whiteSpace=wrap;rounded=0;" vertex="1" parent="1">
          <mxGeometry x="550" y="350" width="40" height="20" as="geometry" />
        </mxCell>
      </root>
    </mxGraphModel>
  </diagram>
</mxfile>
